<svg xmlns="http://www.w3.org/2000/svg" xmlns:xlink="http://www.w3.org/1999/xlink" viewBox="0 0 236.54 200.16"><defs><style>.cls-1{fill:url(#linear-gradient);}.cls-2{fill:url(#linear-gradient-2);}.cls-3{fill:url(#linear-gradient-3);}.cls-4{fill:url(#linear-gradient-4);}.cls-5{fill:url(#linear-gradient-5);}.cls-6{fill:url(#linear-gradient-6);}.cls-7{fill:url(#linear-gradient-7);}.cls-8{fill:url(#linear-gradient-8);}.cls-9{fill:url(#linear-gradient-9);}.cls-10{fill:url(#linear-gradient-10);}.cls-11{fill:url(#linear-gradient-11);}.cls-12{fill:url(#linear-gradient-12);}</style><linearGradient id="linear-gradient" x1="68.89" y1="9.2" x2="178.85" y2="179.41" gradientUnits="userSpaceOnUse"><stop offset="0" stop-color="#fff"/><stop offset="1" stop-color="#15e8ff"/></linearGradient><linearGradient id="linear-gradient-2" x1="13.72" y1="132.38" x2="178.82" y2="-90.94" xlink:href="#linear-gradient"/><linearGradient id="linear-gradient-3" x1="104.65" y1="34.49" x2="227.54" y2="34.49" xlink:href="#linear-gradient"/><linearGradient id="linear-gradient-4" x1="153.76" y1="86.12" x2="228.65" y2="86.12" xlink:href="#linear-gradient"/><linearGradient id="linear-gradient-5" x1="22.08" y1="156.53" x2="22.08" y2="188.7" xlink:href="#linear-gradient"/><linearGradient id="linear-gradient-6" x1="53.93" y1="156.53" x2="53.93" y2="188.7" xlink:href="#linear-gradient"/><linearGradient id="linear-gradient-7" x1="84.71" y1="156.53" x2="84.71" y2="188.7" xlink:href="#linear-gradient"/><linearGradient id="linear-gradient-8" x1="114.66" y1="156.53" x2="114.66" y2="188.7" xlink:href="#linear-gradient"/><linearGradient id="linear-gradient-9" x1="142.89" y1="156.53" x2="142.89" y2="188.7" xlink:href="#linear-gradient"/><linearGradient id="linear-gradient-10" x1="170.71" y1="156.53" x2="170.71" y2="188.7" xlink:href="#linear-gradient"/><linearGradient id="linear-gradient-11" x1="197.04" y1="156.53" x2="197.04" y2="188.7" xlink:href="#linear-gradient"/><linearGradient id="linear-gradient-12" x1="224.43" y1="156.53" x2="224.43" y2="188.7" xlink:href="#linear-gradient"/></defs><g id="Layer_2" data-name="Layer 2"><g id="Layer_1-2" data-name="Layer 1"><polygon class="cls-1" points="159.88 130.68 126.52 131.36 66.27 30.94 84.65 0.64 159.88 130.68"/><polygon class="cls-2" points="8.73 130.36 42.1 131.04 102.35 30.62 83.97 0.32 8.73 130.36"/><polyline class="cls-3" points="188.63 68.99 227.54 0 104.65 0 124.39 29.28 178.52 29.28 171.01 42.35"/><polygon class="cls-4" points="171.12 42.19 228.65 130.04 191.2 130.04 153.76 72.49 171.12 42.19"/><path class="cls-5" d="M44.17,171.49v-.42h-7v.42c2,0,3,.51,3,1.52a7,7,0,0,1-.14,1.26l-6.84,21-6.8-21a4.28,4.28,0,0,1-.28-1.3c0-.95.93-1.43,2.78-1.43v-.42H15.29v.42a3.78,3.78,0,0,1,3.95,2.89l2.7,8.23-4.1,12.59-6.79-21A11,11,0,0,0,10,171.58a1.12,1.12,0,0,0-1-.51H0v.42a3.78,3.78,0,0,1,4,2.89l7.56,23c.55,1.68,1.43,2.52,2.63,2.52h2.65l1.37-4.35,3.92-12.49,4.72,14.32c.55,1.68,1.43,2.52,2.63,2.52h2.65l1.38-4.34,6.76-21.22A3.81,3.81,0,0,1,44.17,171.49Z"/><path class="cls-6" d="M64.38,196.63l-7.31-22.42c-.68-2.09-1.62-3.14-2.84-3.14H46v.42A3.9,3.9,0,0,1,50,174.38l.36,1.1-6.9,21.15a3.8,3.8,0,0,1-3.95,2.89v.42h7.19v-.42c-2,0-3.08-.5-3.08-1.49a4.11,4.11,0,0,1,.24-1.24l1.9-5.76h9.67l1.88,5.77a4.36,4.36,0,0,1,.25,1.28q0,1.44-2.76,1.44v.42H68.37v-.42A3.83,3.83,0,0,1,64.38,196.63Zm-18.55-6,4.75-14.46,4.69,14.46Z"/><path class="cls-7" d="M95.4,196.64,90.78,187a11.14,11.14,0,0,0,4.72-3,6.37,6.37,0,0,0,1.75-4.37,7.11,7.11,0,0,0-3.46-6.37c-2.31-1.48-5.4-2.21-9.28-2.21H70.07v.42c2.18,0,3.31.87,3.4,2.59v22.47c0,2-1.14,3-3.4,3v.42H83.66v-.42q-3.41,0-3.4-3v-8.5h3.82l4.21,8.75c.93,2.1,1.93,3.14,3,3.14h8.06v-.42a3.6,3.6,0,0,1-2.64-.85A7.64,7.64,0,0,1,95.4,196.64Zm-10.89-9H80.26V171.49h4.25q5.94,0,5.94,8.07T84.51,187.63Z"/><path class="cls-8" d="M115.51,171.07H101.07v.42c2.26,0,3.4,1,3.4,3v22.46c-.09,1.73-1.22,2.59-3.4,2.59v.42h14.44a11.51,11.51,0,0,0,9.15-4.18,16.44,16.44,0,0,0,0-20.51A11.51,11.51,0,0,0,115.51,171.07Zm4.92,25q-1.61,3.43-4.92,3.44h-4.25v-28h4.25q3.31,0,4.92,3.44c.68,1.45,1,5,1,10.58S121.11,194.64,120.43,196.08Z"/><path class="cls-9" d="M153.58,196.64,149,187a11.14,11.14,0,0,0,4.72-3,6.42,6.42,0,0,0,1.75-4.37,7.1,7.1,0,0,0-3.47-6.37c-2.3-1.48-5.4-2.21-9.27-2.21H128.25v.42c2.18,0,3.31.87,3.4,2.59v22.47c0,2-1.14,3-3.4,3v.42h13.59v-.42q-3.41,0-3.4-3v-8.5h3.82l4.21,8.75c.93,2.1,1.93,3.14,3,3.14h8.05v-.42a3.57,3.57,0,0,1-2.63-.85A7.64,7.64,0,0,1,153.58,196.64Zm-10.89-9h-4.25V171.49h4.25q5.94,0,5.94,8.07T142.69,187.63Z"/><path class="cls-10" d="M179.84,175.12a11.94,11.94,0,0,0-18.3,0,16.82,16.82,0,0,0,0,20.77,11.9,11.9,0,0,0,18.26,0,16.74,16.74,0,0,0,0-20.77Zm-4.62,21.73a5,5,0,0,1-9,0q-1.44-2.94-1.44-11.34t1.44-11.34a5,5,0,0,1,9,0q1.44,2.93,1.44,11.34T175.22,196.85Z"/><path class="cls-11" d="M207.4,185.8a17.84,17.84,0,0,0-8.23-2.67c5.37-.71,8.07-2.78,8.07-6.2q0-5.87-12.74-5.86H183.45v.42q3.41,0,3.4,3v22.46c-.08,1.73-1.22,2.59-3.4,2.59v.42h14.44c3.88,0,7-.72,9.28-2.18a7,7,0,0,0,3.46-6.31A6.55,6.55,0,0,0,207.4,185.8Zm-13.75-14.31h.85c2.46,0,4.07.46,4.84,1.36a6.25,6.25,0,0,1,1.1,4.16c0,2.35-.42,3.9-1.27,4.63A7,7,0,0,1,194.5,183h-.85Zm8.91,26.42a6.16,6.16,0,0,1-4.67,1.61h-4.24V183.38h2.54q4.17,0,5.86,2.17a9.66,9.66,0,0,1,1.79,5.9Q203.84,196.6,202.56,197.91Z"/><path class="cls-12" d="M236.11,193.57q-.37,6-5.31,6h-8.28V183.81h3.78q3,0,3,3.39h.43V180h-.43q0,3.39-3,3.39h-3.78V171.49h7.86q4.92,0,5.31,5.95h.42v-6.37H212.33v.42q3.4,0,3.4,3v22.46q-.14,2.59-3.4,2.59v.42h24.21v-6.37Z"/></g></g></svg>