<svg xmlns="http://www.w3.org/2000/svg" viewBox="0 0 437.01 161.47"><defs><style>.cls-1{fill:#008081;}</style></defs><g id="Layer_2" data-name="Layer 2"><g id="Layer_1-2" data-name="Layer 1"><path class="cls-1" d="M150,23.85l-33.75,95.7H15.6q-8.25,0-12.3-5.41A19.76,19.76,0,0,1,0,102.42a25.41,25.41,0,0,1,1.5-8.87L14.4,56.43Q19.05,42.9,33.45,42.9h77.1l2.25-7a7.9,7.9,0,0,0,.45-2.52q0-5.2-6.75-5.2H24.15L34.05,0h101.4q15.9,0,15.9,15.9A23.29,23.29,0,0,1,150,23.85ZM100.65,71.1H49.05q-7,0-9.3,6.39l-2,5.18a12.69,12.69,0,0,0-.6,3.66q0,5,5.1,5H93.6Z"/><path class="cls-1" d="M299.7,0,289.65,28.2h-82a17.66,17.66,0,0,0-9.08,2.33q-4,2.32-5,5.47l-29.7,83.55H131.1l36-102.15Q173.25,0,194,0Z"/><path class="cls-1" d="M150,161.47l9.95-28.2H4.8A28.21,28.21,0,0,0,33,161.47Z"/><path class="cls-1" d="M286,54.42,252.83,97.14h-22L234.29,87,226,97.14H205.82l14.69-42.72h11.34L220.47,86.86l25.06-32.44H261l-7.4,9L245.33,87l25.14-32.59Z"/><path class="cls-1" d="M332.86,63,320.8,97.14h-36a5.12,5.12,0,0,1-4.39-1.93A7.05,7.05,0,0,1,279.26,91a9.29,9.29,0,0,1,.53-3.17l4.61-13.26a6.6,6.6,0,0,1,6.81-4.84h27.55l.81-2.49a3.06,3.06,0,0,0,.16-.9c0-1.24-.81-1.86-2.41-1.86H287.89l3.54-10.08h36.23c3.79,0,5.68,1.9,5.68,5.68A8.4,8.4,0,0,1,332.86,63ZM315.23,79.83H296.79a3.22,3.22,0,0,0-3.33,2.28L292.77,84a4.27,4.27,0,0,0-.22,1.3,1.6,1.6,0,0,0,1.82,1.8h18.34Z"/><path class="cls-1" d="M386.36,54.42,382.77,64.5H353.45a6.36,6.36,0,0,0-3.25.83,3.73,3.73,0,0,0-1.79,2L337.79,97.14H326.11L339,60.64q2.2-6.22,9.6-6.22Z"/><path class="cls-1" d="M436.42,63.59,426.29,92.37q-1.67,4.77-6.06,4.77H380.78L395.9,54.42h33.71A8.75,8.75,0,0,1,435,56,5.13,5.13,0,0,1,437,60.32,10.49,10.49,0,0,1,436.42,63.59Zm-12.76,3a1.52,1.52,0,0,0,.06-.42c0-1.15-.91-1.72-2.74-1.72H404.05l-8,22.57h16.83q3.54,0,4.39-2.36l.33-.91Q417.88,83.1,423.66,66.64Z"/><path class="cls-1" d="M267.3,118.75l-3.59,10.07H234.39a6.35,6.35,0,0,0-3.24.83,3.76,3.76,0,0,0-1.8,2l-10.61,29.86H207.06L219.92,125q2.19-6.21,9.59-6.21Z"/><path class="cls-1" d="M315.12,130.06l-9.7,27.44a5.67,5.67,0,0,1-2.74,3.16,7.17,7.17,0,0,1-3.37.81h-31q-6.43,0-6.43-5.52a16.63,16.63,0,0,1,1.23-5.74L264,148l8.79-25.19a5.48,5.48,0,0,1,2.68-3.17,7.2,7.2,0,0,1,3.43-.85h31q6.38,0,6.38,5.52A19.1,19.1,0,0,1,315.12,130.06Zm-12.49,2.09a3,3,0,0,0,.21-1.08c0-1.5-.64-2.25-1.93-2.25H285.37a4.24,4.24,0,0,0-4.24,3.22l-5.57,16a3,3,0,0,0-.21,1.12c0,1.47.64,2.2,1.92,2.2h15.55a4.14,4.14,0,0,0,2.95-1,6.38,6.38,0,0,0,1.23-2.2Z"/><path class="cls-1" d="M367.92,127.91l-2.52,7q-1.5,4.19-5.2,4.94a2.29,2.29,0,0,1,1.42,1.23,4.64,4.64,0,0,1,.56,2.3,4.4,4.4,0,0,1-.27,1.5l-4.07,11.8c-1.11,3.18-3.14,4.77-6.11,4.77H312.28l15.17-42.72h33.66a8.77,8.77,0,0,1,5.33,1.52,5.11,5.11,0,0,1,2.07,4.37A10.49,10.49,0,0,1,367.92,127.91Zm-18.44,19.21a2.78,2.78,0,0,0,.11-.75c0-1.44-.79-2.16-2.36-2.16H330.07l-2.51,7.18h16.88q3.48,0,4.34-2.38ZM355.16,131a1.63,1.63,0,0,0,0-.43c0-1.13-.89-1.7-2.68-1.7h-17l-1.93,5.42H351a6,6,0,0,0,2.68-.43,2.32,2.32,0,0,0,1-1.38Z"/><path class="cls-1" d="M417.29,129.5l-5.58,15.73H377.94L377,148a5.33,5.33,0,0,0-.38,1.73c0,1.12.72,1.68,2.15,1.68h30.77L406,161.47H372.85q-9.44,0-9.43-5.9a17.77,17.77,0,0,1,1.17-5.09l9.81-28.41c.79-2.22,2.7-3.32,5.74-3.32H411.6q6.76,0,6.76,5.56A16.66,16.66,0,0,1,417.29,129.5Zm-12.49,2.09a2.26,2.26,0,0,0,.1-.69c0-1.39-.87-2.08-2.62-2.08h-15a9.66,9.66,0,0,0-2.74.27,2.39,2.39,0,0,0-1.5,1.59l-1.44,4.47h22Z"/></g></g></svg>